ffmpeg started on 2025-05-12 at 21:28:35
Report written to "D:\Convert\FFMetrics\reports\psnr_report-6.txt"
Log level: 32
Command line:
ffmpeg -hide_banner -nostdin -i "G:\\\xc0\xed\xe8\xec\xe5\\\xce\xed\xe3\xee\xe8\xed\xe3\xe8\\!_35_\xcb\xe5\xf2\xee_2024\\DreamCast-1\\\xd1\xe0\xec\xfb\xe9 \xf1\xe8\xeb\xfc\xed\xfb\xe9 \xe2\xee\xeb\xf8\xe5\xe1\xed\xe8\xea \xe0\xf0\xec\xe8\xe8 \xef\xee\xe2\xe5\xeb\xe8\xf2\xe5\xeb\xff \xe4\xe5\xec\xee\xed\xee\xe2 \xee\xea\xe0\xe7\xe0\xeb\xf1\xff \xf7\xe5\xeb\xee\xe2\xe5\xea\xee\xec\\DC_Maou_Gun_Saikyou_no_Majutsushi_wa_Ningen_datta_10_Telegram_HEVC.mkv" -i "G:\\\xc0\xed\xe8\xec\xe5\\\xce\xed\xe3\xee\xe8\xed\xe3\xe8\\!_35_\xcb\xe5\xf2\xee_2024\\DreamCast-1\\\xd1\xe0\xec\xfb\xe9 \xf1\xe8\xeb\xfc\xed\xfb\xe9 \xe2\xee\xeb\xf8\xe5\xe1\xed\xe8\xea \xe0\xf0\xec\xe8\xe8 \xef\xee\xe2\xe5\xeb\xe8\xf2\xe5\xeb\xff \xe4\xe5\xec\xee\xed\xee\xe2 \xee\xea\xe0\xe7\xe0\xeb\xf1\xff \xf7\xe5\xeb\xee\xe2\xe5\xea\xee\xec\\DC_Maou_Gun_Saikyou_no_Majutsushi_wa_Ningen_datta_10_Telegram.mp4" -lavfi "[0:v]settb=AVTB,setpts=PTS-STARTPTS,format=pix_fmts=yuv420p10,fps=24000/1001,scale=1920:1080:flags=bicubic[main];[1:v]settb=AVTB,setpts=PTS-STARTPTS,format=pix_fmts=yuv420p,fps=24000/1001,scale=1920:1080:flags=bicubic[ref];[main][ref]psnr=eof_action=endall:stats_file='D\\:/Convert/FFMetrics/logs/psnr_logfile-6.txt'" -f null -
Input #0, matroska,webm, from 'G:\Аниме\Онгоинги\!_35_Лето_2024\DreamCast-1\Самый сильный волшебник армии повелителя демонов оказался человеком\DC_Maou_Gun_Saikyou_no_Majutsushi_wa_Ningen_datta_10_Telegram_HEVC.mkv':
  Metadata:
    COMPATIBLE_BRANDS: isomiso2avc1mp41
    MAJOR_BRAND     : isom
    MINOR_VERSION   : 512
    ENCODER         : Lavf61.7.100
  Duration: 00:23:46.73, start: -0.021000, bitrate: 1178 kb/s
  Stream #0:0: Video: hevc (Main 10), yuv420p10le(tv, bt709, progressive), 1920x1080 [SAR 1:1 DAR 16:9], 23.98 fps, 23.98 tbr, 1k tbn (default)
      Metadata:
        HANDLER_NAME    : VideoHandler
        VENDOR_ID       : [0][0][0][0]
        ENCODER         : Lavc61.19.100 libx265
        BPS             : 980258
        DURATION        : 00:23:46.549708333
        NUMBER_OF_FRAMES: 34203
        NUMBER_OF_BYTES : 174798280
        _STATISTICS_WRITING_APP: mkvpropedit v66.0.0 ('Josie') 64-bit
        _STATISTICS_WRITING_DATE_UTC: 2025-05-10 16:43:47
        _STATISTICS_TAGS: BPS DURATION NUMBER_OF_FRAMES NUMBER_OF_BYTES
  Stream #0:1: Audio: aac (LC), 48000 Hz, stereo, fltp (default)
      Metadata:
        HANDLER_NAME    : SoundHandler
        VENDOR_ID       : [0][0][0][0]
        ENCODER         : Lavc61.19.100 aac
        BPS             : 193925
        DURATION        : 00:23:46.730000000
        NUMBER_OF_FRAMES: 66879
        NUMBER_OF_BYTES : 34584933
        _STATISTICS_WRITING_APP: mkvpropedit v66.0.0 ('Josie') 64-bit
        _STATISTICS_WRITING_DATE_UTC: 2025-05-10 16:43:47
        _STATISTICS_TAGS: BPS DURATION NUMBER_OF_FRAMES NUMBER_OF_BYTES
Input #1, mov,mp4,m4a,3gp,3g2,mj2, from 'G:\Аниме\Онгоинги\!_35_Лето_2024\DreamCast-1\Самый сильный волшебник армии повелителя демонов оказался человеком\DC_Maou_Gun_Saikyou_no_Majutsushi_wa_Ningen_datta_10_Telegram.mp4':
  Metadata:
    major_brand     : isom
    minor_version   : 512
    compatible_brands: isomiso2avc1mp41
    encoder         : Lavf60.16.100
  Duration: 00:23:46.68, start: 0.000000, bitrate: 3649 kb/s
  Stream #1:0[0x1](und): Video: h264 (High) (avc1 / 0x31637661), yuv420p(tv, bt709, progressive), 1920x1080 [SAR 1:1 DAR 16:9], 3502 kb/s, 23.98 fps, 23.98 tbr, 24k tbn (default)
      Metadata:
        handler_name    : VideoHandler
        vendor_id       : [0][0][0][0]
        encoder         : Lavc60.31.102 h264_qsv
  Stream #1:1[0x2](und): Audio: aac (HE-AACv2) (mp4a / 0x6134706D), 48000 Hz, stereo, fltp, 144 kb/s (default)
      Metadata:
        handler_name    : SoundHandler
        vendor_id       : [0][0][0][0]
Stream mapping:
  Stream #0:0 (hevc) -> settb:default
  Stream #1:0 (h264) -> settb:default
  psnr:default -> Stream #0:0 (wrapped_avframe)
  Stream #0:1 -> #0:1 (aac (native) -> pcm_s16le (native))
Output #0, null, to 'pipe:':
  Metadata:
    COMPATIBLE_BRANDS: isomiso2avc1mp41
    MAJOR_BRAND     : isom
    MINOR_VERSION   : 512
    encoder         : Lavf61.7.100
  Stream #0:0: Video: wrapped_avframe, yuv420p10le(tv, bt709, progressive), 1920x1080 [SAR 1:1 DAR 16:9], q=2-31, 200 kb/s, 23.98 fps, 23.98 tbn
      Metadata:
        encoder         : Lavc61.19.100 wrapped_avframe
  Stream #0:1: Audio: pcm_s16le, 48000 Hz, stereo, s16, 1536 kb/s (default)
      Metadata:
        HANDLER_NAME    : SoundHandler
        VENDOR_ID       : [0][0][0][0]
        _STATISTICS_TAGS: BPS DURATION NUMBER_OF_FRAMES NUMBER_OF_BYTES
        BPS             : 193925
        DURATION        : 00:23:46.730000000
        NUMBER_OF_FRAMES: 66879
        NUMBER_OF_BYTES : 34584933
        _STATISTICS_WRITING_APP: mkvpropedit v66.0.0 ('Josie') 64-bit
        _STATISTICS_WRITING_DATE_UTC: 2025-05-10 16:43:47
        encoder         : Lavc61.19.100 pcm_s16le
frame=  158 fps=0.0 q=-0.0 size=N/A time=00:00:06.58 bitrate=N/A speed=12.6x    frame=  392 fps=380 q=-0.0 size=N/A time=00:00:16.34 bitrate=N/A speed=15.9x    frame=  668 fps=429 q=-0.0 size=N/A time=00:00:27.86 bitrate=N/A speed=17.9x    frame=  923 fps=447 q=-0.0 size=N/A time=00:00:38.49 bitrate=N/A speed=18.6x    frame= 1181 fps=457 q=-0.0 size=N/A time=00:00:49.25 bitrate=N/A speed=  19x    frame= 1407 fps=454 q=-0.0 size=N/A time=00:00:58.68 bitrate=N/A speed=18.9x    frame= 1624 fps=450 q=-0.0 size=N/A time=00:01:07.73 bitrate=N/A speed=18.8x    frame= 1850 fps=448 q=-0.0 size=N/A time=00:01:17.16 bitrate=N/A speed=18.7x    frame= 2106 fps=454 q=-0.0 size=N/A time=00:01:27.83 bitrate=N/A speed=18.9x    frame= 2362 fps=457 q=-0.0 size=N/A time=00:01:38.51 bitrate=N/A speed=19.1x    frame= 2601 fps=459 q=-0.0 size=N/A time=00:01:48.48 bitrate=N/A speed=19.1x    frame= 2846 fps=460 q=-0.0 size=N/A time=00:01:58.70 bitrate=N/A speed=19.2x    frame= 3085 fps=460 q=-0.0 size=N/A time=00:02:08.67 bitrate=N/A speed=19.2x    frame= 3319 fps=460 q=-0.0 size=N/A time=00:02:18.42 bitrate=N/A speed=19.2x    frame= 3519 fps=455 q=-0.0 size=N/A time=00:02:26.77 bitrate=N/A speed=  19x    frame= 3700 fps=448 q=-0.0 size=N/A time=00:02:34.32 bitrate=N/A speed=18.7x    frame= 3936 fps=449 q=-0.0 size=N/A time=00:02:44.16 bitrate=N/A speed=18.7x    frame= 4184 fps=451 q=-0.0 size=N/A time=00:02:54.50 bitrate=N/A speed=18.8x    frame= 4402 fps=449 q=-0.0 size=N/A time=00:03:03.60 bitrate=N/A speed=18.7x    frame= 4595 fps=446 q=-0.0 size=N/A time=00:03:11.64 bitrate=N/A speed=18.6x    frame= 4807 fps=444 q=-0.0 size=N/A time=00:03:20.49 bitrate=N/A speed=18.5x    frame= 5028 fps=443 q=-0.0 size=N/A time=00:03:29.70 bitrate=N/A speed=18.5x    frame= 5292 fps=445 q=-0.0 size=N/A time=00:03:40.72 bitrate=N/A speed=18.6x    frame= 5567 fps=449 q=-0.0 size=N/A time=00:03:52.19 bitrate=N/A speed=18.7x    frame= 5842 fps=453 q=-0.0 size=N/A time=00:04:03.66 bitrate=N/A speed=18.9x    frame= 6088 fps=453 q=-0.0 size=N/A time=00:04:13.92 bitrate=N/A speed=18.9x    frame= 6310 fps=453 q=-0.0 size=N/A time=00:04:23.17 bitrate=N/A speed=18.9x    frame= 6561 fps=454 q=-0.0 size=N/A time=00:04:33.64 bitrate=N/A speed=18.9x    frame= 6806 fps=455 q=-0.0 size=N/A time=00:04:43.86 bitrate=N/A speed=  19x    frame= 7055 fps=456 q=-0.0 size=N/A time=00:04:54.25 bitrate=N/A speed=  19x    frame= 7315 fps=457 q=-0.0 size=N/A time=00:05:05.09 bitrate=N/A speed=19.1x    frame= 7583 fps=459 q=-0.0 size=N/A time=00:05:16.27 bitrate=N/A speed=19.1x    frame= 7851 fps=461 q=-0.0 size=N/A time=00:05:27.45 bitrate=N/A speed=19.2x    frame= 8122 fps=463 q=-0.0 size=N/A time=00:05:38.75 bitrate=N/A speed=19.3x    frame= 8406 fps=465 q=-0.0 size=N/A time=00:05:50.60 bitrate=N/A speed=19.4x    frame= 8669 fps=467 q=-0.0 size=N/A time=00:06:01.56 bitrate=N/A speed=19.5x    frame= 8945 fps=468 q=-0.0 size=N/A time=00:06:13.12 bitrate=N/A speed=19.5x    frame= 9201 fps=469 q=-0.0 size=N/A time=00:06:23.75 bitrate=N/A speed=19.6x    frame= 9474 fps=471 q=-0.0 size=N/A time=00:06:35.14 bitrate=N/A speed=19.6x    frame= 9740 fps=472 q=-0.0 size=N/A time=00:06:46.23 bitrate=N/A speed=19.7x    frame=10000 fps=473 q=-0.0 size=N/A time=00:06:57.08 bitrate=N/A speed=19.7x    frame=10264 fps=474 q=-0.0 size=N/A time=00:07:08.09 bitrate=N/A speed=19.8x    frame=10534 fps=475 q=-0.0 size=N/A time=00:07:19.35 bitrate=N/A speed=19.8x    frame=10789 fps=475 q=-0.0 size=N/A time=00:07:29.99 bitrate=N/A speed=19.8x    frame=11037 fps=475 q=-0.0 size=N/A time=00:07:40.33 bitrate=N/A speed=19.8x    frame=11272 fps=475 q=-0.0 size=N/A time=00:07:50.13 bitrate=N/A speed=19.8x    frame=11502 fps=474 q=-0.0 size=N/A time=00:07:59.72 bitrate=N/A speed=19.8x    frame=11755 fps=475 q=-0.0 size=N/A time=00:08:10.28 bitrate=N/A speed=19.8x    frame=11994 fps=474 q=-0.0 size=N/A time=00:08:20.24 bitrate=N/A speed=19.8x    frame=12264 fps=475 q=-0.0 size=N/A time=00:08:31.51 bitrate=N/A speed=19.8x    frame=12525 fps=476 q=-0.0 size=N/A time=00:08:42.39 bitrate=N/A speed=19.8x    frame=12762 fps=476 q=-0.0 size=N/A time=00:08:52.28 bitrate=N/A speed=19.8x    frame=12970 fps=474 q=-0.0 size=N/A time=00:09:00.95 bitrate=N/A speed=19.8x    frame=13173 fps=473 q=-0.0 size=N/A time=00:09:09.42 bitrate=N/A speed=19.7x    frame=13435 fps=474 q=-0.0 size=N/A time=00:09:20.35 bitrate=N/A speed=19.8x    frame=13692 fps=474 q=-0.0 size=N/A time=00:09:31.07 bitrate=N/A speed=19.8x    frame=13915 fps=473 q=-0.0 size=N/A time=00:09:40.37 bitrate=N/A speed=19.7x    frame=14154 fps=473 q=-0.0 size=N/A time=00:09:50.33 bitrate=N/A speed=19.7x    frame=14391 fps=473 q=-0.0 size=N/A time=00:10:00.22 bitrate=N/A speed=19.7x    frame=14618 fps=472 q=-0.0 size=N/A time=00:10:09.69 bitrate=N/A speed=19.7x    frame=14888 fps=473 q=-0.0 size=N/A time=00:10:20.95 bitrate=N/A speed=19.7x    frame=15147 fps=474 q=-0.0 size=N/A time=00:10:31.75 bitrate=N/A speed=19.7x    frame=15388 fps=474 q=-0.0 size=N/A time=00:10:41.80 bitrate=N/A speed=19.8x    frame=15639 fps=474 q=-0.0 size=N/A time=00:10:52.27 bitrate=N/A speed=19.8x    frame=15866 fps=473 q=-0.0 size=N/A time=00:11:01.74 bitrate=N/A speed=19.7x    frame=16129 fps=474 q=-0.0 size=N/A time=00:11:12.71 bitrate=N/A speed=19.8x    frame=16379 fps=474 q=-0.0 size=N/A time=00:11:23.14 bitrate=N/A speed=19.8x    frame=16599 fps=473 q=-0.0 size=N/A time=00:11:32.31 bitrate=N/A speed=19.7x    frame=16810 fps=472 q=-0.0 size=N/A time=00:11:41.11 bitrate=N/A speed=19.7x    frame=17032 fps=472 q=-0.0 size=N/A time=00:11:50.37 bitrate=N/A speed=19.7x    frame=17256 fps=471 q=-0.0 size=N/A time=00:11:59.71 bitrate=N/A speed=19.7x    frame=17503 fps=471 q=-0.0 size=N/A time=00:12:10.02 bitrate=N/A speed=19.7x    frame=17739 fps=471 q=-0.0 size=N/A time=00:12:19.86 bitrate=N/A speed=19.6x    frame=17946 fps=470 q=-0.0 size=N/A time=00:12:28.49 bitrate=N/A speed=19.6x    frame=18117 fps=468 q=-0.0 size=N/A time=00:12:35.62 bitrate=N/A speed=19.5x    frame=18286 fps=466 q=-0.0 size=N/A time=00:12:42.67 bitrate=N/A speed=19.5x    frame=18541 fps=467 q=-0.0 size=N/A time=00:12:53.31 bitrate=N/A speed=19.5x    frame=18790 fps=467 q=-0.0 size=N/A time=00:13:03.69 bitrate=N/A speed=19.5x    frame=19021 fps=467 q=-0.0 size=N/A time=00:13:13.33 bitrate=N/A speed=19.5x    frame=19266 fps=467 q=-0.0 size=N/A time=00:13:23.59 bitrate=N/A speed=19.5x    frame=19503 fps=467 q=-0.0 size=N/A time=00:13:33.43 bitrate=N/A speed=19.5x    frame=19731 fps=466 q=-0.0 size=N/A time=00:13:42.94 bitrate=N/A speed=19.5x    frame=19963 fps=466 q=-0.0 size=N/A time=00:13:52.62 bitrate=N/A speed=19.4x    frame=20211 fps=466 q=-0.0 size=N/A time=00:14:02.96 bitrate=N/A speed=19.5x    frame=20419 fps=466 q=-0.0 size=N/A time=00:14:11.64 bitrate=N/A speed=19.4x    frame=20653 fps=466 q=-0.0 size=N/A time=00:14:21.40 bitrate=N/A speed=19.4x    frame=20818 fps=464 q=-0.0 size=N/A time=00:14:28.28 bitrate=N/A speed=19.4x    frame=20983 fps=462 q=-0.0 size=N/A time=00:14:35.16 bitrate=N/A speed=19.3x    frame=21122 fps=460 q=-0.0 size=N/A time=00:14:40.96 bitrate=N/A speed=19.2x    frame=21329 fps=460 q=-0.0 size=N/A time=00:14:49.59 bitrate=N/A speed=19.2x    frame=21541 fps=459 q=-0.0 size=N/A time=00:14:58.43 bitrate=N/A speed=19.1x    frame=21741 fps=458 q=-0.0 size=N/A time=00:15:06.78 bitrate=N/A speed=19.1x    frame=21869 fps=456 q=-0.0 size=N/A time=00:15:12.11 bitrate=N/A speed=  19x    frame=22091 fps=456 q=-0.0 size=N/A time=00:15:21.37 bitrate=N/A speed=  19x    frame=22268 fps=454 q=-0.0 size=N/A time=00:15:28.76 bitrate=N/A speed=  19x    frame=22456 fps=453 q=-0.0 size=N/A time=00:15:36.60 bitrate=N/A speed=18.9x    frame=22625 fps=452 q=-0.0 size=N/A time=00:15:43.65 bitrate=N/A speed=18.9x    frame=22786 fps=451 q=-0.0 size=N/A time=00:15:50.36 bitrate=N/A speed=18.8x    frame=22995 fps=450 q=-0.0 size=N/A time=00:15:59.08 bitrate=N/A speed=18.8x    frame=23236 fps=450 q=-0.0 size=N/A time=00:16:09.13 bitrate=N/A speed=18.8x    frame=23477 fps=451 q=-0.0 size=N/A time=00:16:19.18 bitrate=N/A speed=18.8x    frame=23680 fps=450 q=-0.0 size=N/A time=00:16:27.65 bitrate=N/A speed=18.8x    frame=23923 fps=450 q=-0.0 size=N/A time=00:16:37.78 bitrate=N/A speed=18.8x    frame=24168 fps=450 q=-0.0 size=N/A time=00:16:48.00 bitrate=N/A speed=18.8x    frame=24420 fps=451 q=-0.0 size=N/A time=00:16:58.51 bitrate=N/A speed=18.8x    frame=24689 fps=451 q=-0.0 size=N/A time=00:17:09.73 bitrate=N/A speed=18.8x    frame=24946 fps=452 q=-0.0 size=N/A time=00:17:20.45 bitrate=N/A speed=18.8x    frame=25200 fps=452 q=-0.0 size=N/A time=00:17:31.05 bitrate=N/A speed=18.9x    frame=25413 fps=452 q=-0.0 size=N/A time=00:17:39.97 bitrate=N/A speed=18.8x    frame=25650 fps=452 q=-0.0 size=N/A time=00:17:49.81 bitrate=N/A speed=18.8x    frame=25906 fps=452 q=-0.0 size=N/A time=00:18:00.49 bitrate=N/A speed=18.9x    frame=26157 fps=453 q=-0.0 size=N/A time=00:18:10.96 bitrate=N/A speed=18.9x    frame=26408 fps=453 q=-0.0 size=N/A time=00:18:21.43 bitrate=N/A speed=18.9x    frame=26651 fps=453 q=-0.0 size=N/A time=00:18:31.56 bitrate=N/A speed=18.9x    frame=26887 fps=453 q=-0.0 size=N/A time=00:18:41.41 bitrate=N/A speed=18.9x    frame=27147 fps=454 q=-0.0 size=N/A time=00:18:52.25 bitrate=N/A speed=18.9x    frame=27423 fps=454 q=-0.0 size=N/A time=00:19:03.76 bitrate=N/A speed=18.9x    frame=27673 fps=455 q=-0.0 size=N/A time=00:19:14.19 bitrate=N/A speed=  19x    frame=27923 fps=455 q=-0.0 size=N/A time=00:19:24.62 bitrate=N/A speed=  19x    frame=28167 fps=455 q=-0.0 size=N/A time=00:19:34.79 bitrate=N/A speed=  19x    frame=28424 fps=455 q=-0.0 size=N/A time=00:19:45.51 bitrate=N/A speed=  19x    frame=28686 fps=456 q=-0.0 size=N/A time=00:19:56.44 bitrate=N/A speed=  19x    frame=28924 fps=456 q=-0.0 size=N/A time=00:20:06.37 bitrate=N/A speed=  19x    frame=29164 fps=456 q=-0.0 size=N/A time=00:20:16.38 bitrate=N/A speed=  19x    frame=29422 fps=456 q=-0.0 size=N/A time=00:20:27.14 bitrate=N/A speed=  19x    frame=29681 fps=457 q=-0.0 size=N/A time=00:20:37.94 bitrate=N/A speed=  19x    frame=29933 fps=457 q=-0.0 size=N/A time=00:20:48.45 bitrate=N/A speed=19.1x    frame=30207 fps=457 q=-0.0 size=N/A time=00:20:59.88 bitrate=N/A speed=19.1x    frame=30467 fps=458 q=-0.0 size=N/A time=00:21:10.72 bitrate=N/A speed=19.1x    frame=30731 fps=458 q=-0.0 size=N/A time=00:21:21.73 bitrate=N/A speed=19.1x    frame=30968 fps=458 q=-0.0 size=N/A time=00:21:31.62 bitrate=N/A speed=19.1x    frame=31221 fps=458 q=-0.0 size=N/A time=00:21:42.17 bitrate=N/A speed=19.1x    frame=31487 fps=459 q=-0.0 size=N/A time=00:21:53.27 bitrate=N/A speed=19.1x    frame=31714 fps=459 q=-0.0 size=N/A time=00:22:02.73 bitrate=N/A speed=19.1x    frame=31942 fps=459 q=-0.0 size=N/A time=00:22:12.24 bitrate=N/A speed=19.1x    frame=32123 fps=458 q=-0.0 size=N/A time=00:22:19.79 bitrate=N/A speed=19.1x    frame=32328 fps=457 q=-0.0 size=N/A time=00:22:28.34 bitrate=N/A speed=19.1x    frame=32541 fps=457 q=-0.0 size=N/A time=00:22:37.23 bitrate=N/A speed=19.1x    frame=32733 fps=457 q=-0.0 size=N/A time=00:22:45.23 bitrate=N/A speed=  19x    frame=32931 fps=456 q=-0.0 size=N/A time=00:22:53.49 bitrate=N/A speed=  19x    frame=33131 fps=455 q=-0.0 size=N/A time=00:23:01.83 bitrate=N/A speed=  19x    frame=33323 fps=455 q=-0.0 size=N/A time=00:23:09.84 bitrate=N/A speed=  19x    frame=33520 fps=454 q=-0.0 size=N/A time=00:23:18.06 bitrate=N/A speed=  19x    frame=33712 fps=454 q=-0.0 size=N/A time=00:23:26.07 bitrate=N/A speed=18.9x    frame=33904 fps=453 q=-0.0 size=N/A time=00:23:34.07 bitrate=N/A speed=18.9x    frame=34115 fps=453 q=-0.0 size=N/A time=00:23:42.87 bitrate=N/A speed=18.9x    [Parsed_psnr_10 @ 00000202039907c0] PSNR y:49.817513 u:50.488410 v:50.550105 average:50.039031 min:40.096068 max:inf
[out#0/null @ 0000020276ad5f00] video:14697KiB audio:267516KiB subtitle:0KiB other streams:0KiB global headers:0KiB muxing overhead: unknown
frame=34203 fps=453 q=-0.0 Lsize=N/A time=00:23:46.55 bitrate=N/A speed=18.9x    
